<svg width="17" height="30" viewBox="0 0 17 30" fill="none" xmlns="http://www.w3.org/2000/svg">
<path fill-rule="evenodd" clip-rule="evenodd" d="M15.3497 28.3495C14.9592 28.7401 14.3996 28.8137 14.1 28.514L1.04307 15.4571C0.743384 15.1574 0.817025 14.5979 1.20755 14.2074C1.59807 13.8169 2.1576 13.7432 2.45728 14.0429L15.5142 27.0998C15.8139 27.3995 15.7402 27.959 15.3497 28.3495Z" fill="white"/>
<path fill-rule="evenodd" clip-rule="evenodd" d="M1.20711 15.3497C0.816582 14.9592 0.742941 14.3996 1.04262 14.1L14.0995 1.04307C14.3992 0.743384 14.9587 0.817025 15.3492 1.20755C15.7398 1.59807 15.8134 2.1576 15.5137 2.45728L2.45684 15.5142C2.15715 15.8139 1.59763 15.7402 1.20711 15.3497Z" fill="white"/>
</svg>
