<svg width="29" height="16" viewBox="0 0 29 16" fill="none" xmlns="http://www.w3.org/2000/svg">
<path fill-rule="evenodd" clip-rule="evenodd" d="M27.8495 0.706956C28.2401 1.09748 28.3137 1.657 28.014 1.95669L14.9571 15.0136C14.6574 15.3133 14.0979 15.2396 13.7074 14.8491C13.3169 14.4586 13.2432 13.899 13.5429 13.5994L26.5998 0.542473C26.8995 0.24279 27.459 0.316431 27.8495 0.706956Z" fill="white"/>
<path fill-rule="evenodd" clip-rule="evenodd" d="M14.8497 14.8495C14.4592 15.2401 13.8996 15.3137 13.6 15.014L0.543067 1.95713C0.243384 1.65745 0.317025 1.09792 0.70755 0.707399C1.09807 0.316874 1.6576 0.243233 1.95728 0.542916L15.0142 13.5998C15.3139 13.8995 15.2402 14.459 14.8497 14.8495Z" fill="white"/>
</svg>
