<svg width="29" height="16" viewBox="0 0 29 16" fill="none" xmlns="http://www.w3.org/2000/svg">
<path fill-rule="evenodd" clip-rule="evenodd" d="M0.707107 14.8497C0.316582 14.4592 0.242941 13.8996 0.542624 13.6L13.5995 0.543067C13.8992 0.243384 14.4587 0.317025 14.8492 0.70755C15.2398 1.09807 15.3134 1.6576 15.0137 1.95728L1.95684 15.0142C1.65715 15.3139 1.09763 15.2402 0.707107 14.8497Z" fill="white"/>
<path fill-rule="evenodd" clip-rule="evenodd" d="M13.707 0.707107C14.0975 0.316582 14.657 0.242941 14.9567 0.542624L28.0136 13.5995C28.3133 13.8992 28.2396 14.4587 27.8491 14.8492C27.4586 15.2398 26.899 15.3134 26.5994 15.0137L13.5425 1.95684C13.2428 1.65715 13.3164 1.09763 13.707 0.707107Z" fill="white"/>
</svg>
