<svg width="30" height="30" viewBox="0 0 30 30" fill="none" xmlns="http://www.w3.org/2000/svg">
<path fill-rule="evenodd" clip-rule="evenodd" d="M22.0704 22.0712C21.6799 22.4617 21.1203 22.5354 20.8207 22.2357L7.76377 9.17881C7.46409 8.87913 7.53773 8.3196 7.92825 7.92908C8.31878 7.53855 8.8783 7.46491 9.17798 7.76459L22.2349 20.8215C22.5346 21.1212 22.4609 21.6807 22.0704 22.0712Z" fill="white"/>
<path fill-rule="evenodd" clip-rule="evenodd" d="M7.92879 22.0714C7.53826 21.6808 7.46462 21.1213 7.7643 20.8216L20.8212 7.76475C21.1209 7.46506 21.6804 7.5387 22.0709 7.92923C22.4614 8.31975 22.5351 8.87928 22.2354 9.17896L9.17852 22.2358C8.87883 22.5355 8.31931 22.4619 7.92879 22.0714Z" fill="white"/>
</svg>
