<svg width="30" height="28" viewBox="0 0 30 28" fill="none" xmlns="http://www.w3.org/2000/svg">
<path d="M15 27C15 27 1 18.7273 1 8.68183C1 6.90598 1.58309 5.18498 2.65007 3.81164C3.71705 2.4383 5.202 1.49746 6.85227 1.14919C8.50255 0.800915 10.2162 1.06673 11.7017 1.9014C13.1872 2.73607 14.3527 4.08804 15 5.72728C15.6473 4.08804 16.8128 2.73607 18.2983 1.9014C19.7838 1.06673 21.4974 0.800915 23.1477 1.14919C24.798 1.49746 26.283 2.4383 27.3499 3.81164C28.4169 5.18498 29 6.90598 29 8.68183C29 18.7273 15 27 15 27Z" stroke="white" stroke-width="2" stroke-linecap="round" stroke-linejoin="round"/>
</svg>
