<svg width="30" height="28" viewBox="0 0 30 28" fill="none" xmlns="http://www.w3.org/2000/svg">
<path d="M14 26C14 26 0 17.7273 0 7.68183C0 5.90598 0.583092 4.18498 1.65007 2.81164C2.71705 1.4383 4.202 0.49746 5.85227 0.149188C7.50255 -0.199085 9.21621 0.0667265 10.7017 0.901397C12.1872 1.73607 13.3527 3.08804 14 4.72728C14.6473 3.08804 15.8128 1.73607 17.2983 0.901397C18.7838 0.0667265 20.4974 -0.199085 22.1477 0.149188C23.798 0.49746 25.283 1.4383 26.3499 2.81164C27.4169 4.18498 28 5.90598 28 7.68183C28 17.7273 14 26 14 26Z" fill="#D9D9D9"/>
</svg>
