<svg width="30" height="28" viewBox="0 0 30 28" fill="none" xmlns="http://www.w3.org/2000/svg">
<path d="M15 28C15 28 0 19.0909 0 8.27274C0 6.36028 0.624741 4.5069 1.76793 3.02792C2.91112 1.54894 4.50214 0.535726 6.27029 0.160664C8.03845 -0.214399 9.87451 0.0718593 11.4661 0.970736C13.0577 1.86961 14.3065 3.32558 15 5.09092C15.6935 3.32558 16.9423 1.86961 18.5339 0.970736C20.1255 0.0718593 21.9616 -0.214399 23.7297 0.160664C25.4979 0.535726 27.0889 1.54894 28.2321 3.02792C29.3753 4.5069 30 6.36028 30 8.27274C30 19.0909 15 28 15 28Z" fill="#D9D9D9"/>
</svg>
