<svg width="34" height="32" viewBox="0 0 34 32" fill="none" xmlns="http://www.w3.org/2000/svg">
<path d="M17 30.2857C17 30.2857 2 21.2857 2 10.3572C2 8.42519 2.62474 6.55289 3.76793 5.05882C4.91112 3.56475 6.50214 2.54119 8.27029 2.1623C10.0384 1.78341 11.8745 2.07259 13.4661 2.98064C15.0577 3.88869 16.3065 5.35951 17 7.14287C17.6935 5.35951 18.9423 3.88869 20.5339 2.98064C22.1255 2.07259 23.9616 1.78341 25.7297 2.1623C27.4979 2.54119 29.0889 3.56475 30.2321 5.05882C31.3753 6.55289 32 8.42519 32 10.3572C32 21.2857 17 30.2857 17 30.2857Z" stroke="#CDCDE0" stroke-width="3" stroke-linecap="round" stroke-linejoin="round"/>
</svg>
