<svg width="30" height="29" viewBox="0 0 30 29" fill="none" xmlns="http://www.w3.org/2000/svg">
<path d="M15 28.4615C15 28.4615 0 19.4056 0 8.4091C0 6.46512 0.624741 4.58119 1.76793 3.07783C2.91112 1.57447 4.50214 0.544557 6.27029 0.163312C8.03845 -0.217933 9.87451 0.0730438 11.4661 0.986737C13.0577 1.90043 14.3065 3.3804 15 5.17484C15.6935 3.3804 16.9423 1.90043 18.5339 0.986737C20.1255 0.0730438 21.9616 -0.217933 23.7297 0.163312C25.4979 0.544557 27.0889 1.57447 28.2321 3.07783C29.3753 4.58119 30 6.46512 30 8.4091C30 19.4056 15 28.4615 15 28.4615Z" fill="#C15DF3"/>
</svg>
