<svg width="32" height="30" viewBox="0 0 32 30" fill="none" xmlns="http://www.w3.org/2000/svg">
<path d="M16 29C16 29 1 20.0909 1 9.27274C1 7.36028 1.62474 5.5069 2.76793 4.02792C3.91112 2.54894 5.50214 1.53573 7.27029 1.16066C9.03845 0.785601 10.8745 1.07186 12.4661 1.97074C14.0577 2.86961 15.3065 4.32558 16 6.09092C16.6935 4.32558 17.9423 2.86961 19.5339 1.97074C21.1255 1.07186 22.9616 0.785601 24.7297 1.16066C26.4979 1.53573 28.0889 2.54894 29.2321 4.02792C30.3753 5.5069 31 7.36028 31 9.27274C31 20.0909 16 29 16 29Z" stroke="white" stroke-width="2" stroke-linecap="round" stroke-linejoin="round"/>
</svg>
