<svg width="30" height="30" viewBox="0 0 30 30" fill="none" xmlns="http://www.w3.org/2000/svg">
<path id="Loupe" d="M11.8864 0C5.32866 0 0 5.2073 0 11.6157C0 18.024 5.32866 23.2313 11.8864 23.2313C14.4811 23.2313 16.8791 22.4146 18.8347 21.032L28.0335 30L30 28.0783L20.9104 19.1744C22.6966 17.1406 23.7728 14.5009 23.7728 11.6157C23.7728 5.2073 18.4441 0 11.8864 0ZM11.8864 1.36655C17.6875 1.36655 22.3744 5.94662 22.3744 11.6157C22.3744 17.2847 17.6875 21.8648 11.8864 21.8648C6.08522 21.8648 1.3984 17.2847 1.3984 11.6157C1.3984 5.94662 6.08522 1.36655 11.8864 1.36655Z" fill="white"/>
</svg>
