<svg width="68" height="13" viewBox="0 0 68 13" fill="none" xmlns="http://www.w3.org/2000/svg">
<path d="M34 12C37.0376 12 39.5 9.53757 39.5 6.5C39.5 3.46243 37.0376 1 34 1C30.9624 1 28.5 3.46243 28.5 6.5C28.5 9.53757 30.9624 12 34 12Z" fill="#CDCDE0" stroke="#CDCDE0" stroke-width="2" stroke-linecap="round" stroke-linejoin="round"/>
<path d="M6.5 12C9.53757 12 12 9.53757 12 6.5C12 3.46243 9.53757 1 6.5 1C3.46243 1 1 3.46243 1 6.5C1 9.53757 3.46243 12 6.5 12Z" fill="#CDCDE0" stroke="#CDCDE0" stroke-width="2" stroke-linecap="round" stroke-linejoin="round"/>
<path d="M61.5 12C64.5376 12 67 9.53757 67 6.5C67 3.46243 64.5376 1 61.5 1C58.4624 1 56 3.46243 56 6.5C56 9.53757 58.4624 12 61.5 12Z" fill="#CDCDE0" stroke="#CDCDE0" stroke-width="2" stroke-linecap="round" stroke-linejoin="round"/>
</svg>
