<svg width="12" height="20" viewBox="0 0 12 20" fill="none" xmlns="http://www.w3.org/2000/svg">
<path fill-rule="evenodd" clip-rule="evenodd" d="M1 20C0.447715 20 0 19.6564 0 19.2326L0 0.767386C0 0.343571 0.447715 3.20375e-07 1 3.20375e-07C1.55228 3.20375e-07 2 0.343571 2 0.767386L2 19.2326C2 19.6564 1.55228 20 1 20Z" fill="white"/>
<path fill-rule="evenodd" clip-rule="evenodd" d="M11 20C10.4477 20 10 19.6564 10 19.2326L10 0.767386C10 0.343571 10.4477 3.20375e-07 11 3.20375e-07C11.5523 3.20375e-07 12 0.343571 12 0.767386L12 19.2326C12 19.6564 11.5523 20 11 20Z" fill="white"/>
</svg>
