<svg width="20" height="20" viewBox="0 0 20 20" fill="none" xmlns="http://www.w3.org/2000/svg">
<path fill-rule="evenodd" clip-rule="evenodd" d="M10 20C9.44772 20 9 19.6564 9 19.2326L9 0.767386C9 0.343571 9.44772 3.20375e-07 10 3.20375e-07C10.5523 3.20375e-07 11 0.343571 11 0.767386L11 19.2326C11 19.6564 10.5523 20 10 20Z" fill="white"/>
<path fill-rule="evenodd" clip-rule="evenodd" d="M0 10C0 9.44772 0.34357 9 0.767386 9L19.2326 9C19.6564 9 20 9.44772 20 10C20 10.5523 19.6564 11 19.2326 11L0.767386 11C0.34357 11 0 10.5523 0 10Z" fill="white"/>
</svg>
