<svg width="93" height="70" viewBox="0 0 93 70" fill="none" xmlns="http://www.w3.org/2000/svg">
<path fill-rule="evenodd" clip-rule="evenodd" d="M2 11.7316C2 10.0892 3.31215 8.75781 4.93077 8.75781H14.1903C18.7327 8.76346 23.2084 9.86785 27.2461 11.9794C31.2834 14.0907 34.7665 17.1481 37.4067 20.8982C37.407 20.8986 37.4064 20.8978 37.4067 20.8982L54.1548 44.6412C56.2535 47.6224 59.024 50.0553 62.2334 51.7337C65.4422 53.4118 68.999 54.2896 72.6089 54.2945C72.6096 54.2945 72.6082 54.2945 72.6089 54.2945H85.069C86.6876 54.2945 87.9998 55.6259 87.9998 57.2683C87.9998 58.9107 86.6876 60.2421 85.069 60.2421H72.6039C68.0615 60.2365 63.5859 59.1321 59.5481 57.0205C55.5104 54.909 52.027 51.8511 49.3867 48.1005L32.6395 24.3588C30.5408 21.3775 27.7703 18.9446 24.5608 17.2662C21.3519 15.5881 17.795 14.7102 14.1849 14.7055H4.93077C3.31215 14.7055 2 13.374 2 11.7316Z" fill="white"/>
<path d="M37.4067 20.8982C34.7665 17.1481 31.2834 14.0907 27.2461 11.9794C23.2084 9.86785 18.7327 8.76346 14.1903 8.75781H4.93077C3.31215 8.75781 2 10.0892 2 11.7316C2 13.374 3.31215 14.7055 4.93077 14.7055H14.1849C17.795 14.7102 21.3519 15.5881 24.5608 17.2662C27.7703 18.9446 30.5408 21.3775 32.6395 24.3588L49.3867 48.1005C52.027 51.8511 55.5104 54.909 59.5481 57.0205C63.5859 59.1321 68.0615 60.2365 72.6039 60.2421H85.069C86.6876 60.2421 87.9998 58.9107 87.9998 57.2683C87.9998 55.6259 86.6876 54.2945 85.069 54.2945H72.6089M37.4067 20.8982C37.4064 20.8978 37.407 20.8986 37.4067 20.8982ZM37.4067 20.8982L54.1548 44.6412C56.2535 47.6224 59.024 50.0553 62.2334 51.7337C65.4422 53.4118 68.999 54.2896 72.6089 54.2945M72.6089 54.2945C72.6082 54.2945 72.6096 54.2945 72.6089 54.2945Z" stroke="white" stroke-width="3" stroke-linecap="round" stroke-linejoin="round"/>
<path fill-rule="evenodd" clip-rule="evenodd" d="M72.6045 8.75782L72.6081 8.75781L85.0696 8.75781C86.6882 8.75781 88.0004 10.0892 88.0004 11.7316C88.0004 13.374 86.6882 14.7055 85.0696 14.7055H72.6099C68.9999 14.7102 65.443 15.5881 62.2341 17.2662C59.027 18.9434 56.2598 21.3716 54.1617 24.3498L53.6857 25.034C52.7523 26.3758 50.9236 26.6958 49.6012 25.7486C48.2789 24.8015 47.9636 22.9459 48.897 21.6041L49.3873 20.8993C52.0276 17.1488 55.5111 14.0909 59.5488 11.9794C63.5865 9.86785 68.0621 8.76347 72.6045 8.75782Z" fill="white" stroke="white" stroke-width="3" stroke-linecap="round" stroke-linejoin="round"/>
<path fill-rule="evenodd" clip-rule="evenodd" d="M37.1936 43.2516C38.516 44.1987 38.8313 46.0543 37.8978 47.3961L37.417 48.0872L37.4075 48.1008C34.7672 51.8514 31.2838 54.9092 27.2461 57.0208C23.2084 59.1323 18.7327 60.2367 14.1903 60.2424L4.93077 60.2424C3.31215 60.2424 2 58.9109 2 57.2685C2 55.6262 3.31215 54.2947 4.93077 54.2947H14.1848C17.7949 54.29 21.3518 53.4121 24.5608 51.734C27.7678 50.0569 30.5349 47.6287 32.633 44.6506L33.1092 43.9661C34.0426 42.6244 35.8713 42.3044 37.1936 43.2516Z" fill="white" stroke="white" stroke-width="3" stroke-linecap="round" stroke-linejoin="round"/>
<path d="M91.9113 11.872C91.9109 11.8738 91.9105 11.8754 91.9102 11.8769L76.9999 22.4381V1.22861L91.9102 11.7897C91.9105 11.7913 91.9109 11.7929 91.9113 11.7946C91.9135 11.8057 91.915 11.8189 91.915 11.8333C91.915 11.8478 91.9135 11.861 91.9113 11.872ZM77.0086 22.7565C77.0086 22.7565 77.0081 22.7557 77.0074 22.7541C77.0084 22.7556 77.0087 22.7564 77.0086 22.7565ZM77.0086 0.91021C77.0087 0.910245 77.0084 0.911069 77.0074 0.912572C77.0081 0.910928 77.0086 0.910175 77.0086 0.91021Z" fill="white" stroke="white" stroke-width="2"/>
<path d="M91.9113 57.872C91.9109 57.8738 91.9105 57.8754 91.9102 57.8769L76.9999 68.4381V47.2286L91.9102 57.7897C91.9105 57.7913 91.9109 57.7929 91.9113 57.7946C91.9135 57.8057 91.915 57.8189 91.915 57.8333C91.915 57.8478 91.9135 57.861 91.9113 57.872ZM77.0086 68.7565C77.0086 68.7565 77.0081 68.7557 77.0074 68.7541C77.0084 68.7556 77.0087 68.7564 77.0086 68.7565ZM77.0086 46.9102C77.0087 46.9102 77.0084 46.9111 77.0074 46.9126C77.0081 46.9109 77.0086 46.9102 77.0086 46.9102Z" fill="white" stroke="white" stroke-width="2"/>
</svg>
