<svg width="22" height="18" viewBox="0 0 22 18" fill="none" xmlns="http://www.w3.org/2000/svg">
<path fill-rule="evenodd" clip-rule="evenodd" d="M0 3.22756C0 2.81118 0.335666 2.47363 0.749732 2.47363H3.11846C4.28047 2.47507 5.4254 2.75505 6.4583 3.29037C7.4911 3.82564 8.38213 4.60076 9.05752 5.55147C9.05759 5.55157 9.05745 5.55137 9.05752 5.55147L13.3419 11.5708C13.8788 12.3266 14.5875 12.9434 15.4086 13.3689C16.2294 13.7944 17.1393 14.0169 18.0627 14.0181C18.0629 14.0181 18.0626 14.0181 18.0627 14.0181H21.2502C21.6643 14.0181 21.9999 14.3557 21.9999 14.7721C21.9999 15.1884 21.6643 15.526 21.2502 15.526H18.0615C16.8994 15.5246 15.7545 15.2446 14.7216 14.7093C13.6887 14.1739 12.7976 13.3987 12.1222 12.4478L7.838 6.4288C7.30113 5.673 6.59239 5.0562 5.77137 4.63069C4.95048 4.20525 4.04057 3.9827 3.11708 3.98149H0.749732C0.335666 3.98149 0 3.64394 0 3.22756Z" fill="white"/>
<path fill-rule="evenodd" clip-rule="evenodd" d="M18.2596 0.22082C18.5524 -0.0736067 19.0271 -0.0736067 19.3199 0.22082L21.78 2.69464C22.0728 2.98907 22.0728 3.46643 21.78 3.76086L19.3199 6.23468C19.0271 6.5291 18.5524 6.5291 18.2596 6.23468C17.9668 5.94025 17.9668 5.46289 18.2596 5.16846L20.1895 3.22775L18.2596 1.28703C17.9668 0.992607 17.9668 0.515247 18.2596 0.22082Z" fill="white"/>
<path fill-rule="evenodd" clip-rule="evenodd" d="M18.2596 11.7653C18.5524 11.4708 19.0271 11.4708 19.3199 11.7653L21.78 14.2391C22.0728 14.5335 22.0728 15.0109 21.78 15.3053L19.3199 17.7791C19.0271 18.0735 18.5524 18.0735 18.2596 17.7791C17.9668 17.4847 17.9668 17.0073 18.2596 16.7129L20.1895 14.7722L18.2596 12.8315C17.9668 12.537 17.9668 12.0597 18.2596 11.7653Z" fill="white"/>
<path fill-rule="evenodd" clip-rule="evenodd" d="M18.0614 2.47363L18.0623 2.47363L21.2501 2.47363C21.6642 2.47363 21.9999 2.81118 21.9999 3.22756C21.9999 3.64394 21.6642 3.98149 21.2501 3.98149H18.0628C17.1393 3.9827 16.2294 4.20525 15.4085 4.63069C14.588 5.05589 13.8802 5.6715 13.3434 6.42654L13.2217 6.6C12.9829 6.94017 12.5151 7.02128 12.1768 6.78116C11.8385 6.54104 11.7579 6.07062 11.9967 5.73045L12.1221 5.55177C12.7975 4.60092 13.6886 3.82569 14.7215 3.29037C15.7544 2.75505 16.8994 2.47507 18.0614 2.47363Z" fill="white"/>
<path fill-rule="evenodd" clip-rule="evenodd" d="M9.00302 11.2186C9.3413 11.4587 9.42195 11.9292 9.18317 12.2693L9.06017 12.4446L9.05774 12.448C8.38232 13.3989 7.49121 14.1741 6.4583 14.7094C5.4254 15.2447 4.28047 15.5247 3.11846 15.5261L0.749732 15.5261C0.335666 15.5261 0 15.1886 0 14.7722C0 14.3558 0.335666 14.0183 0.749732 14.0183H3.11704C4.04055 14.0171 4.95047 13.7945 5.77137 13.3691C6.59177 12.9439 7.29963 12.3283 7.83636 11.5733L7.95816 11.3998C8.19694 11.0596 8.66475 10.9785 9.00302 11.2186Z" fill="white"/>
</svg>
