<svg width="61" height="45" viewBox="0 0 61 45" fill="none" xmlns="http://www.w3.org/2000/svg">
<path fill-rule="evenodd" clip-rule="evenodd" d="M2 7.57812C2 6.51724 2.85153 5.65723 3.90194 5.65723H9.911C12.8588 5.66088 15.7633 6.37424 18.3836 7.73815C21.0037 9.10192 23.2641 11.0768 24.9774 13.4991C24.9776 13.4994 24.9772 13.4988 24.9774 13.4991L35.8462 28.8355C37.2082 30.7611 39.0061 32.3326 41.0889 33.4168C43.1713 34.5007 45.4795 35.0677 47.8222 35.0709C47.8226 35.0709 47.8217 35.0709 47.8222 35.0709H55.9083C56.9587 35.0709 57.8102 35.9309 57.8102 36.9917C57.8102 38.0526 56.9587 38.9126 55.9083 38.9126H47.8189C44.8711 38.909 41.9666 38.1956 39.3463 36.8317C36.726 35.4678 34.4654 33.4926 32.752 31.07L21.8837 15.7344C20.5218 13.8087 18.7238 12.2372 16.641 11.1531C14.5585 10.0691 12.2503 9.50209 9.90751 9.49901H3.90194C2.85153 9.49901 2 8.63899 2 7.57812Z" fill="#CDCDE0"/>
<path d="M24.9774 13.4991C23.2641 11.0768 21.0037 9.10192 18.3836 7.73815C15.7633 6.37424 12.8588 5.66088 9.911 5.65723H3.90194C2.85153 5.65723 2 6.51724 2 7.57812C2 8.63899 2.85153 9.49901 3.90194 9.49901H9.90751C12.2503 9.50209 14.5585 10.0691 16.641 11.1531C18.7238 12.2372 20.5218 13.8087 21.8837 15.7344L32.752 31.07C34.4654 33.4926 36.726 35.4678 39.3463 36.8317C41.9666 38.1956 44.8711 38.909 47.8189 38.9126H55.9083C56.9587 38.9126 57.8102 38.0526 57.8102 36.9917C57.8102 35.9309 56.9587 35.0709 55.9083 35.0709H47.8222M24.9774 13.4991C24.9772 13.4988 24.9776 13.4994 24.9774 13.4991ZM24.9774 13.4991L35.8462 28.8355C37.2082 30.7611 39.0061 32.3326 41.0889 33.4168C43.1713 34.5007 45.4795 35.0677 47.8222 35.0709M47.8222 35.0709C47.8217 35.0709 47.8226 35.0709 47.8222 35.0709Z" stroke="#CDCDE0" stroke-width="3" stroke-linecap="round" stroke-linejoin="round"/>
<path fill-rule="evenodd" clip-rule="evenodd" d="M47.8194 5.65723L47.8217 5.65723L55.9087 5.65723C56.9591 5.65723 57.8106 6.51724 57.8106 7.57812C57.8106 8.639 56.9591 9.49901 55.9087 9.49901H47.8229C45.4801 9.50209 43.1718 10.0691 41.0894 11.1531C39.0081 12.2364 37.2123 13.8049 35.8508 15.7286L35.5419 16.1706C34.9361 17.0373 33.7494 17.2439 32.8912 16.6321C32.0331 16.0204 31.8285 14.8218 32.4342 13.9551L32.7524 13.4998C34.4658 11.0772 36.7264 9.10207 39.3467 7.73815C41.9671 6.37424 44.8716 5.66088 47.8194 5.65723Z" fill="#CDCDE0" stroke="#CDCDE0" stroke-width="3" stroke-linecap="round" stroke-linejoin="round"/>
<path fill-rule="evenodd" clip-rule="evenodd" d="M24.8392 27.9377C25.6973 28.5495 25.9019 29.748 25.2962 30.6147L24.9841 31.0612L24.978 31.07C23.2645 33.4926 21.0039 35.4677 18.3836 36.8317C15.7633 38.1956 12.8588 38.9089 9.911 38.9126L3.90194 38.9126C2.85153 38.9126 2 38.0526 2 36.9917C2 35.9308 2.85153 35.0708 3.90194 35.0708H9.90742C12.2502 35.0677 14.5585 34.5007 16.641 33.4167C18.7222 32.3334 20.518 30.765 21.8795 28.8413L22.1885 28.3992C22.7943 27.5325 23.981 27.3259 24.8392 27.9377Z" fill="#CDCDE0" stroke="#CDCDE0" stroke-width="3" stroke-linecap="round" stroke-linejoin="round"/>
<path d="M51.0228 1.47307L59.7751 7.64354L51.0228 13.814V1.47307Z" fill="#CDCDE0" stroke="#CDCDE0" stroke-width="2"/>
<path d="M51.0228 31.186L59.7751 37.3564L51.0228 43.5269V31.186Z" fill="#CDCDE0" stroke="#CDCDE0" stroke-width="2"/>
</svg>
