<svg width="22" height="18" viewBox="0 0 22 18" fill="none" xmlns="http://www.w3.org/2000/svg">
<path fill-rule="evenodd" clip-rule="evenodd" d="M0 3.2278C0 2.81142 0.335666 2.47388 0.749732 2.47388H3.11846C4.28047 2.47531 5.4254 2.7553 6.4583 3.29062C7.4911 3.82588 8.38213 4.601 9.05752 5.55172C9.05759 5.55182 9.05745 5.55162 9.05752 5.55172L13.3419 11.5711C13.8788 12.3269 14.5875 12.9437 15.4086 13.3692C16.2294 13.7946 17.1393 14.0172 18.0627 14.0184C18.0629 14.0184 18.0626 14.0184 18.0627 14.0184H21.2502C21.6643 14.0184 21.9999 14.3559 21.9999 14.7723C21.9999 15.1887 21.6643 15.5262 21.2502 15.5262H18.0615C16.8994 15.5248 15.7545 15.2448 14.7216 14.7095C13.6887 14.1742 12.7976 13.3989 12.1222 12.4481L7.838 6.42904C7.30113 5.67324 6.59239 5.05644 5.77137 4.63093C4.95048 4.20549 4.04057 3.98294 3.11708 3.98173H0.749732C0.335666 3.98173 0 3.64419 0 3.2278Z" fill="#453B77"/>
<path fill-rule="evenodd" clip-rule="evenodd" d="M18.2596 0.22082C18.5524 -0.0736067 19.0271 -0.0736067 19.3199 0.22082L21.78 2.69464C22.0728 2.98907 22.0728 3.46643 21.78 3.76086L19.3199 6.23468C19.0271 6.5291 18.5524 6.5291 18.2596 6.23468C17.9668 5.94025 17.9668 5.46289 18.2596 5.16846L20.1895 3.22775L18.2596 1.28703C17.9668 0.992607 17.9668 0.515247 18.2596 0.22082Z" fill="#453B77"/>
<path fill-rule="evenodd" clip-rule="evenodd" d="M18.2596 11.7653C18.5524 11.4708 19.0271 11.4708 19.3199 11.7653L21.78 14.2391C22.0728 14.5335 22.0728 15.0109 21.78 15.3053L19.3199 17.7791C19.0271 18.0735 18.5524 18.0735 18.2596 17.7791C17.9668 17.4847 17.9668 17.0073 18.2596 16.7129L20.1895 14.7722L18.2596 12.8315C17.9668 12.537 17.9668 12.0597 18.2596 11.7653Z" fill="#453B77"/>
<path fill-rule="evenodd" clip-rule="evenodd" d="M18.0614 2.47388L18.0623 2.47388L21.2501 2.47388C21.6642 2.47388 21.9999 2.81142 21.9999 3.2278C21.9999 3.64419 21.6642 3.98173 21.2501 3.98173H18.0628C17.1393 3.98294 16.2294 4.20549 15.4085 4.63093C14.588 5.05613 13.8802 5.67174 13.3434 6.42678L13.2217 6.60024C12.9829 6.94042 12.5151 7.02152 12.1768 6.7814C11.8385 6.54128 11.7579 6.07086 11.9967 5.73069L12.1221 5.55201C12.7975 4.60116 13.6886 3.82594 14.7215 3.29062C15.7544 2.7553 16.8994 2.47531 18.0614 2.47388Z" fill="#453B77"/>
<path fill-rule="evenodd" clip-rule="evenodd" d="M9.00302 11.2186C9.3413 11.4587 9.42195 11.9292 9.18317 12.2693L9.06017 12.4446L9.05774 12.448C8.38232 13.3989 7.49121 14.1741 6.4583 14.7094C5.4254 15.2447 4.28047 15.5247 3.11846 15.5261L0.749732 15.5261C0.335666 15.5261 0 15.1886 0 14.7722C0 14.3558 0.335666 14.0183 0.749732 14.0183H3.11704C4.04055 14.0171 4.95047 13.7945 5.77137 13.3691C6.59177 12.9439 7.29963 12.3283 7.83636 11.5733L7.95816 11.3998C8.19694 11.0596 8.66475 10.9785 9.00302 11.2186Z" fill="#453B77"/>
</svg>
