<svg width="30" height="24" viewBox="0 0 30 24" fill="none" xmlns="http://www.w3.org/2000/svg">
<path fill-rule="evenodd" clip-rule="evenodd" d="M0 4.28125C0 3.72897 0.447715 3.28125 1 3.28125H4.15943C5.70933 3.28315 7.23646 3.65452 8.61415 4.36456C9.9917 5.07453 11.1802 6.10265 12.081 7.36366C12.0811 7.3638 12.0809 7.36353 12.081 7.36366L17.7956 15.3477C18.5117 16.3502 19.457 17.1683 20.5521 17.7327C21.647 18.2969 22.8606 18.5921 24.0923 18.5938C24.0925 18.5938 24.092 18.5938 24.0923 18.5938H28.3438C28.896 18.5938 29.3438 19.0415 29.3438 19.5938C29.3438 20.146 28.896 20.5938 28.3438 20.5938H24.0906C22.5407 20.5919 21.0135 20.2205 19.6358 19.5104C18.2582 18.8004 17.0696 17.7721 16.1687 16.5109L10.4544 8.52734C9.73832 7.52485 8.793 6.70674 7.69791 6.14234C6.603 5.57804 5.38936 5.28286 4.15759 5.28125H1C0.447715 5.28125 0 4.83353 0 4.28125Z" fill="white"/>
<path fill-rule="evenodd" clip-rule="evenodd" d="M24.3554 0.292893C24.7459 -0.0976311 25.3791 -0.0976311 25.7696 0.292893L29.0509 3.57414C29.4414 3.96467 29.4414 4.59783 29.0509 4.98836L25.7696 8.26961C25.3791 8.66013 24.7459 8.66013 24.3554 8.26961C23.9649 7.87908 23.9649 7.24592 24.3554 6.85539L26.9295 4.28125L24.3554 1.70711C23.9649 1.31658 23.9649 0.683417 24.3554 0.292893Z" fill="white"/>
<path fill-rule="evenodd" clip-rule="evenodd" d="M24.3554 15.6054C24.7459 15.2149 25.3791 15.2149 25.7696 15.6054L29.0509 18.8866C29.4414 19.2772 29.4414 19.9103 29.0509 20.3009L25.7696 23.5821C25.3791 23.9726 24.7459 23.9726 24.3554 23.5821C23.9649 23.1916 23.9649 22.5584 24.3554 22.1679L26.9295 19.5938L24.3554 17.0196C23.9649 16.6291 23.9649 15.9959 24.3554 15.6054Z" fill="white"/>
<path fill-rule="evenodd" clip-rule="evenodd" d="M24.0907 3.28125L24.0919 3.28125L28.3438 3.28125C28.8961 3.28125 29.3438 3.72897 29.3438 4.28125C29.3438 4.83354 28.8961 5.28125 28.3438 5.28125H24.0925C22.8607 5.28286 21.6471 5.57804 20.5522 6.14234C19.4579 6.70632 18.5137 7.52287 17.7978 8.52434L17.6354 8.75442C17.3169 9.20562 16.693 9.3132 16.2418 8.9947C15.7906 8.67621 15.683 8.05225 16.0015 7.60105L16.1688 7.36406C17.0696 6.10286 18.2582 5.07461 19.6359 4.36456C21.0136 3.65452 22.5407 3.28315 24.0907 3.28125Z" fill="white"/>
<path fill-rule="evenodd" clip-rule="evenodd" d="M12.0083 14.8804C12.4595 15.1989 12.5671 15.8228 12.2486 16.274L12.0845 16.5065L12.0813 16.511C11.1804 17.7722 9.99185 18.8005 8.61415 19.5105C7.23646 20.2206 5.70933 20.5919 4.15943 20.5938L1 20.5938C0.447715 20.5938 0 20.1461 0 19.5938C0 19.0415 0.447715 18.5938 1 18.5938H4.15754C5.38933 18.5922 6.60299 18.297 7.69791 17.7327C8.79217 17.1688 9.73632 16.3523 10.4522 15.3508L10.6147 15.1207C10.9332 14.6695 11.5571 14.5619 12.0083 14.8804Z" fill="white"/>
</svg>
