<svg width="22" height="18" viewBox="0 0 22 18" fill="none" xmlns="http://www.w3.org/2000/svg">
<path fill-rule="evenodd" clip-rule="evenodd" d="M18.1148 0.202286C18.4189 -0.0674287 18.912 -0.0674287 19.2161 0.202286L21.7715 2.46847C22.0756 2.73819 22.0756 3.17548 21.7715 3.4452L19.2161 5.71138C18.912 5.9811 18.4189 5.9811 18.1148 5.71138C17.8107 5.44167 17.8107 5.00437 18.1148 4.73466L20.1195 2.95683L18.1148 1.17901C17.8107 0.909294 17.8107 0.472001 18.1148 0.202286Z" fill="white"/>
<path fill-rule="evenodd" clip-rule="evenodd" d="M7.59171 2.26611L7.59292 2.26611L21.2212 2.26611C21.6513 2.26611 22 2.57533 22 2.95676C22 3.3382 21.6513 3.64741 21.2212 3.64741H7.59356C5.99352 3.64976 4.45977 4.21449 3.32836 5.21788C2.19682 6.2214 1.56002 7.58182 1.55752 9.001C1.55685 9.38244 1.20764 9.69117 0.777547 9.69057C0.34745 9.68998 -0.000669492 9.38028 9.66825e-07 8.99885C0.00313816 7.21407 0.803983 5.50319 2.22703 4.24116C3.65007 2.97913 5.57922 2.2689 7.59171 2.26611Z" fill="white"/>
<path fill-rule="evenodd" clip-rule="evenodd" d="M3.88474 12.2887C4.18886 12.5584 4.18886 12.9957 3.88474 13.2654L1.8801 15.0433L3.88474 16.8211C4.18886 17.0908 4.18886 17.5281 3.88474 17.7978C3.58061 18.0675 3.08753 18.0675 2.7834 17.7978L0.228094 15.5316C-0.0760313 15.2619 -0.0760313 14.8246 0.228094 14.5549L2.7834 12.2887C3.08753 12.019 3.58061 12.019 3.88474 12.2887Z" fill="white"/>
<path fill-rule="evenodd" clip-rule="evenodd" d="M21.2225 8.30957C21.6526 8.31017 22.0007 8.61986 22 9.00129C21.9969 10.7861 21.196 12.497 19.773 13.759C18.3499 15.021 16.4208 15.7312 14.4083 15.734L0.778761 15.734C0.348663 15.734 0 15.4248 0 15.0434C0 14.6619 0.348663 14.3527 0.778761 14.3527H14.4066C16.0065 14.3504 17.5403 13.7856 18.6716 12.7823C19.8032 11.7787 20.44 10.4183 20.4425 8.99914C20.4431 8.61771 20.7924 8.30898 21.2225 8.30957Z" fill="white"/>
</svg>
