<svg width="61" height="47" viewBox="0 0 61 47" fill="none" xmlns="http://www.w3.org/2000/svg">
<path fill-rule="evenodd" clip-rule="evenodd" d="M19.959 5.77149L19.9619 5.77148L52.2012 5.77149C53.2187 5.77149 54.0435 6.59568 54.0435 7.61237C54.0435 8.62906 53.2187 9.45325 52.2012 9.45325H19.9634C16.1784 9.45951 12.5501 10.9648 9.87361 13.6393C7.19681 16.3141 5.69039 19.9402 5.68449 23.7229C5.68291 24.7396 4.85682 25.5625 3.83938 25.561C2.82193 25.5594 1.99842 24.7339 2 23.7172C2.00742 18.96 3.90191 14.3997 7.26828 11.0359C10.6346 7.67199 15.1983 5.7789 19.959 5.77149Z" fill="#B1B1C0" stroke="#B1B1C0" stroke-width="3" stroke-linecap="round" stroke-linejoin="round"/>
<path fill-rule="evenodd" clip-rule="evenodd" d="M57.1602 21.4385C58.1776 21.4401 59.0011 22.2655 58.9995 23.2822C58.9921 28.0395 57.0976 32.5997 53.7313 35.9636C50.3649 39.3274 45.8013 41.2205 41.0405 41.2279L8.7983 41.228C7.78086 41.228 6.95605 40.4038 6.95605 39.3871C6.95605 38.3704 7.78086 37.5462 8.7983 37.5462H41.0364C44.8214 37.5399 48.4495 36.0346 51.1259 33.3602C53.8027 30.6854 55.3091 27.0592 55.315 23.2765C55.3166 22.2598 56.1427 21.4369 57.1602 21.4385Z" fill="#B1B1C0" stroke="#B1B1C0" stroke-width="3" stroke-linecap="round" stroke-linejoin="round"/>
<path d="M12.2112 45.5344L3.21006 39.1667L12.2112 32.7989L12.2112 45.5344Z" fill="#B1B1C0" stroke="#B1B1C0" stroke-width="2"/>
<path d="M48.7888 1.46559L57.7899 7.83333L48.7888 14.2011V1.46559Z" fill="#B1B1C0" stroke="#B1B1C0" stroke-width="2"/>
</svg>
