<svg width="35" height="35" viewBox="0 0 35 35" fill="none" xmlns="http://www.w3.org/2000/svg">
<path fill-rule="evenodd" clip-rule="evenodd" d="M26.6366 4.76164C27.0272 4.37112 27.6603 4.37112 28.0509 4.76164L31.3321 8.04289C31.7226 8.43342 31.7226 9.06658 31.3321 9.45711L28.0509 12.7384C27.6603 13.1289 27.0272 13.1289 26.6366 12.7384C26.2461 12.3478 26.2461 11.7147 26.6366 11.3241L29.2108 8.75L26.6366 6.17586C26.2461 5.78533 26.2461 5.15217 26.6366 4.76164Z" fill="white"/>
<path fill-rule="evenodd" clip-rule="evenodd" d="M13.1234 7.75L13.125 7.75L30.625 7.75C31.1773 7.75 31.625 8.19772 31.625 8.75C31.625 9.30229 31.1773 9.75 30.625 9.75H13.1258C11.0712 9.7534 9.10175 10.5711 7.64892 12.0239C6.19591 13.4769 5.3782 15.4467 5.375 17.5016C5.37414 18.0538 4.92573 18.5009 4.37344 18.5C3.82116 18.4991 3.37414 18.0507 3.375 17.4984C3.37903 14.9142 4.40739 12.437 6.2347 10.6097C8.06202 8.78239 10.5392 7.75403 13.1234 7.75Z" fill="white"/>
<path fill-rule="evenodd" clip-rule="evenodd" d="M8.36336 22.2616C8.75388 22.6522 8.75388 23.2853 8.36336 23.6759L5.78921 26.25L8.36336 28.8241C8.75388 29.2147 8.75388 29.8478 8.36336 30.2384C7.97283 30.6289 7.33967 30.6289 6.94914 30.2384L3.66789 26.9571C3.27737 26.5666 3.27737 25.9334 3.66789 25.5429L6.94914 22.2616C7.33967 21.8711 7.97283 21.8711 8.36336 22.2616Z" fill="white"/>
<path fill-rule="evenodd" clip-rule="evenodd" d="M30.6266 16.5C31.1788 16.5009 31.6259 16.9493 31.625 17.5016C31.621 20.0858 30.5926 22.563 28.7653 24.3903C26.938 26.2176 24.4608 27.246 21.8766 27.25L4.375 27.25C3.82272 27.25 3.375 26.8023 3.375 26.25C3.375 25.6977 3.82272 25.25 4.375 25.25H21.8743C23.9289 25.2466 25.8983 24.4289 27.3511 22.9761C28.8041 21.5231 29.6218 19.5533 29.625 17.4984C29.6259 16.9462 30.0743 16.4991 30.6266 16.5Z" fill="white"/>
</svg>
