<svg width="90" height="71" viewBox="0 0 90 71" fill="none" xmlns="http://www.w3.org/2000/svg">
<path fill-rule="evenodd" clip-rule="evenodd" d="M29.0961 8.71973L29.1004 8.71973L77.7422 8.71973C79.2773 8.71973 80.5217 9.96478 80.5217 11.5006C80.5217 13.0365 79.2773 14.2815 77.7422 14.2815H29.1027C23.3919 14.291 17.9177 16.5649 13.8795 20.6051C9.84081 24.6458 7.56796 30.1235 7.55906 35.8379C7.55667 37.3737 6.31029 38.6169 4.7752 38.6145C3.24011 38.6121 1.99761 37.3651 2 35.8292C2.0112 28.6428 4.86955 21.7539 9.94863 16.6723C15.0277 11.5907 21.9132 8.73094 29.0961 8.71973Z" fill="#C15DF3" stroke="#C15DF3" stroke-width="3" stroke-linecap="round" stroke-linejoin="round"/>
<path fill-rule="evenodd" clip-rule="evenodd" d="M85.2251 32.3857C86.7602 32.3881 88.0027 33.6351 88.0003 35.171C87.9891 42.3574 85.1307 49.2463 80.0516 54.3279C74.9726 59.4095 68.0871 62.2693 60.9042 62.2805L12.258 62.2805C10.723 62.2805 9.47852 61.0354 9.47852 59.4996C9.47852 57.9637 10.723 56.7187 12.258 56.7187H60.898C66.6086 56.7091 72.0827 54.4352 76.1208 50.3951C80.1594 46.3544 82.4323 40.8767 82.4412 35.1623C82.4436 33.6265 83.69 32.3834 85.2251 32.3857Z" fill="#C15DF3" stroke="#C15DF3" stroke-width="3" stroke-linecap="round" stroke-linejoin="round"/>
<path d="M3.00378 59.128C3.00414 59.1262 3.00451 59.1246 3.00488 59.1231L17.9151 48.5619L17.9151 69.7714L3.00488 59.2103C3.00451 59.2087 3.00414 59.2071 3.00378 59.2054C3.00149 59.1943 3 59.1811 3 59.1667C3 59.1522 3.00149 59.139 3.00378 59.128ZM17.9064 48.2435C17.9065 48.2435 17.9069 48.2443 17.9076 48.2459C17.9067 48.2444 17.9063 48.2436 17.9064 48.2435ZM17.9064 70.0898C17.9063 70.0898 17.9067 70.0889 17.9076 70.0874C17.9069 70.0891 17.9065 70.0898 17.9064 70.0898Z" fill="#C15DF3" stroke="#C15DF3" stroke-width="2"/>
<path d="M86.9962 11.872C86.9959 11.8738 86.9955 11.8754 86.9951 11.8769L72.0849 22.4381V1.22861L86.9951 11.7897C86.9955 11.7913 86.9959 11.7929 86.9962 11.7946C86.9985 11.8057 87 11.8189 87 11.8333C87 11.8478 86.9985 11.861 86.9962 11.872ZM72.0936 22.7565C72.0935 22.7565 72.0931 22.7557 72.0924 22.7541C72.0933 22.7556 72.0937 22.7564 72.0936 22.7565ZM72.0936 0.91021C72.0937 0.910245 72.0933 0.911069 72.0924 0.912572C72.0931 0.910928 72.0935 0.910175 72.0936 0.91021Z" fill="#C15DF3" stroke="#C15DF3" stroke-width="2"/>
</svg>
