<svg width="99" height="99" viewBox="0 0 99 99" fill="none" xmlns="http://www.w3.org/2000/svg">
<path d="M74.25 37.125H66C64.906 37.125 63.8568 37.5596 63.0832 38.3332C62.3096 39.1068 61.875 40.156 61.875 41.25C61.875 42.344 62.3096 43.3932 63.0832 44.1668C63.8568 44.9404 64.906 45.375 66 45.375H74.25V82.5H24.75V45.375H33C34.094 45.375 35.1432 44.9404 35.9168 44.1668C36.6904 43.3932 37.125 42.344 37.125 41.25C37.125 40.156 36.6904 39.1068 35.9168 38.3332C35.1432 37.5596 34.094 37.125 33 37.125H24.75C22.562 37.125 20.4635 37.9942 18.9164 39.5414C17.3692 41.0885 16.5 43.187 16.5 45.375V82.5C16.5 84.688 17.3692 86.7865 18.9164 88.3336C20.4635 89.8808 22.562 90.75 24.75 90.75H74.25C76.438 90.75 78.5365 89.8808 80.0836 88.3336C81.6308 86.7865 82.5 84.688 82.5 82.5V45.375C82.5 43.187 81.6308 41.0885 80.0836 39.5414C78.5365 37.9942 76.438 37.125 74.25 37.125Z" fill="white"/>
<path d="M35.929 27.6787L45.3753 18.1912V61.875C45.3753 62.969 45.8099 64.0182 46.5835 64.7918C47.357 65.5654 48.4063 66 49.5003 66C50.5943 66 51.6435 65.5654 52.4171 64.7918C53.1907 64.0182 53.6253 62.969 53.6253 61.875V18.1912L63.0715 27.6787C63.455 28.0654 63.9112 28.3722 64.4139 28.5817C64.9166 28.7911 65.4557 28.8989 66.0003 28.8989C66.5448 28.8989 67.084 28.7911 67.5867 28.5817C68.0893 28.3722 68.5455 28.0654 68.929 27.6787C69.3157 27.2953 69.6225 26.839 69.832 26.3364C70.0414 25.8337 70.1492 25.2945 70.1492 24.75C70.1492 24.2054 70.0414 23.6663 69.832 23.1636C69.6225 22.6609 69.3157 22.2047 68.929 21.8212L52.429 5.32123C52.0281 4.95687 51.5677 4.66388 51.0678 4.45498C50.574 4.23675 50.0401 4.12402 49.5003 4.12402C48.9604 4.12402 48.4265 4.23675 47.9328 4.45498C47.4329 4.66388 46.9725 4.95687 46.5715 5.32123L30.0715 21.8212C29.6869 22.2058 29.3818 22.6624 29.1737 23.165C28.9655 23.6675 28.8584 24.2061 28.8584 24.75C28.8584 25.2939 28.9655 25.8325 29.1737 26.335C29.3818 26.8375 29.6869 27.2941 30.0715 27.6787C30.4561 28.0633 30.9127 28.3684 31.4152 28.5766C31.9178 28.7847 32.4564 28.8919 33.0003 28.8919C33.5442 28.8919 34.0828 28.7847 34.5853 28.5766C35.0878 28.3684 35.5444 28.0633 35.929 27.6787Z" fill="white"/>
</svg>
