<svg width="62" height="62" viewBox="0 0 62 62" fill="none" xmlns="http://www.w3.org/2000/svg">
<path d="M59 21.6667V3M59 3H40.3333M59 3L34.1111 27.8889M24.7778 9.22222H17.9333C12.7062 9.22222 10.0926 9.22222 8.09609 10.2395C6.3399 11.1343 4.91209 12.5621 4.01727 14.3183C3 16.3148 3 18.9284 3 24.1556V44.0667C3 49.294 3 51.9073 4.01727 53.904C4.91209 55.6602 6.3399 57.0879 8.09609 57.9827C10.0926 59 12.7062 59 17.9333 59H37.8444C43.0717 59 45.6851 59 47.6818 57.9827C49.438 57.0879 50.8657 55.6602 51.7604 53.904C52.7778 51.9073 52.7778 49.294 52.7778 44.0667V37.2222" stroke="white" stroke-width="5" stroke-linecap="round" stroke-linejoin="round"/>
</svg>
