<svg width="37" height="33" viewBox="0 0 37 33" fill="none" xmlns="http://www.w3.org/2000/svg">
<g filter="url(#filter0_d_203_869)">
<path d="M4.96229 24.9896C4.86345 25.0035 4.76317 25.0035 4.66434 24.9896C4.4636 24.9245 4.2899 24.795 4.17005 24.6213C4.05019 24.4476 3.99083 24.2393 4.00115 24.0285V23.0674C4.00153 18.7241 5.54988 14.5232 8.36829 11.2186C11.1867 7.91403 15.0906 5.72215 19.3794 5.03637V0.96114C19.3794 0.782645 19.4291 0.607676 19.5229 0.455839C19.6168 0.304002 19.751 0.181296 19.9107 0.101471C20.0703 0.0216451 20.2491 -0.0121457 20.4268 0.00388413C20.6046 0.019914 20.7744 0.0851314 20.9172 0.192228L32.4509 8.84249C32.5703 8.93202 32.6672 9.04811 32.7339 9.18157C32.8006 9.31503 32.8354 9.46219 32.8354 9.6114C32.8354 9.76061 32.8006 9.90778 32.7339 10.0412C32.6672 10.1747 32.5703 10.2908 32.4509 10.3803L20.9172 19.0306C20.7744 19.1377 20.6046 19.2029 20.4268 19.2189C20.2491 19.2349 20.0703 19.2012 19.9107 19.1213C19.751 19.0415 19.6168 18.9188 19.5229 18.767C19.4291 18.6151 19.3794 18.4402 19.3794 18.2617V14.6574C14.7252 15.417 10.5574 17.9791 7.77843 21.789L5.74081 24.5956C5.65134 24.718 5.53416 24.8176 5.39885 24.886C5.26354 24.9545 5.11394 24.99 4.96229 24.9896ZM21.3017 2.88342V5.88218C21.3031 6.11979 21.2165 6.3495 21.0585 6.527C20.9005 6.7045 20.6824 6.81718 20.4463 6.84332C16.8221 7.23871 13.4343 8.83477 10.8218 11.3776C8.20936 13.9204 6.52233 17.2638 6.02915 20.876L6.18294 20.6741C7.8277 18.4157 9.9301 16.5294 12.353 15.1383C14.7759 13.7472 17.4648 12.8824 20.2444 12.6005C20.3784 12.5881 20.5135 12.6039 20.641 12.6469C20.7685 12.69 20.8855 12.7593 20.9845 12.8504C21.0841 12.9403 21.1637 13.05 21.2183 13.1725C21.273 13.295 21.3014 13.4276 21.3017 13.5617V16.3394L30.2691 9.6114L21.3017 2.88342Z" fill="white"/>
</g>
<defs>
<filter id="filter0_d_203_869" x="0" y="0" width="36.835" height="33" filterUnits="userSpaceOnUse" color-interpolation-filters="sRGB">
<feFlood flood-opacity="0" result="BackgroundImageFix"/>
<feColorMatrix in="SourceAlpha" type="matrix" values="0 0 0 0 0 0 0 0 0 0 0 0 0 0 0 0 0 0 127 0" result="hardAlpha"/>
<feOffset dy="4"/>
<feGaussianBlur stdDeviation="2"/>
<feComposite in2="hardAlpha" operator="out"/>
<feColorMatrix type="matrix" values="0 0 0 0 0 0 0 0 0 0 0 0 0 0 0 0 0 0 0.25 0"/>
<feBlend mode="normal" in2="BackgroundImageFix" result="effect1_dropShadow_203_869"/>
<feBlend mode="normal" in="SourceGraphic" in2="effect1_dropShadow_203_869" result="shape"/>
</filter>
</defs>
</svg>
