<svg width="46" height="46" viewBox="0 0 46 46" fill="none" xmlns="http://www.w3.org/2000/svg">
<path fill-rule="evenodd" clip-rule="evenodd" d="M38.4289 12.9515C38.9273 12.4519 39.7363 12.451 40.2359 12.9494C41.5578 14.2681 42.6065 15.8347 43.322 17.5594C44.0376 19.284 44.4059 21.1329 44.4059 23C44.4059 24.8672 44.0376 26.7161 43.322 28.4407C42.6065 30.1654 41.5578 31.7319 40.2359 33.0507C39.7363 33.5491 38.9273 33.5482 38.4289 33.0486C37.9304 32.549 37.9314 31.74 38.431 31.2416C39.5149 30.1602 40.3748 28.8756 40.9616 27.4614C41.5483 26.0472 41.8503 24.5311 41.8503 23C41.8503 21.469 41.5483 19.9529 40.9616 18.5387C40.3748 17.1245 39.5149 15.8399 38.431 14.7585C37.9314 14.2601 37.9304 13.4511 38.4289 12.9515Z" fill="#CDCDE0"/>
<path fill-rule="evenodd" clip-rule="evenodd" d="M14.3754 14.5352C15.0811 14.5352 15.6532 15.1072 15.6532 15.8129V30.1879C15.6532 30.8936 15.0811 31.4657 14.3754 31.4657C13.6697 31.4657 13.0977 30.8936 13.0977 30.1879V15.8129C13.0977 15.1072 13.6697 14.5352 14.3754 14.5352Z" fill="#CDCDE0"/>
<path fill-rule="evenodd" clip-rule="evenodd" d="M33.3432 18.0371C33.8413 17.5372 34.6503 17.5356 35.1503 18.0337C35.804 18.6849 36.3228 19.4589 36.6768 20.3111C37.0307 21.1633 37.2129 22.077 37.2129 22.9998C37.2129 23.9227 37.0307 24.8364 36.6768 25.6886C36.3228 26.5408 35.804 27.3148 35.1503 27.966C34.6503 28.4641 33.8413 28.4625 33.3432 27.9626C32.8452 27.4626 32.8467 26.6536 33.3467 26.1555C33.7621 25.7417 34.0918 25.2499 34.3167 24.7084C34.5416 24.1668 34.6574 23.5862 34.6574 22.9998C34.6574 22.4135 34.5416 21.8329 34.3167 21.2913C34.0918 20.7498 33.7621 20.258 33.3467 19.8442C32.8467 19.3461 32.8452 18.5371 33.3432 18.0371Z" fill="#CDCDE0"/>
<path fill-rule="evenodd" clip-rule="evenodd" d="M7.76592 6.24246C8.28809 5.76776 9.09622 5.80624 9.57092 6.32842L38.3209 37.9534C38.7956 38.4756 38.7571 39.2837 38.235 39.7584C37.7128 40.2331 36.9047 40.1946 36.43 39.6725L7.67996 8.04747C7.20526 7.5253 7.24374 6.71717 7.76592 6.24246Z" fill="#CDCDE0"/>
<path fill-rule="evenodd" clip-rule="evenodd" d="M16.6051 14.0744C17.0389 14.631 16.9394 15.4339 16.3828 15.8677L15.1609 16.82C14.9365 16.995 14.66 17.09 14.3754 17.09H5.75043C5.70807 17.09 5.66745 17.1068 5.63749 17.1368C5.60754 17.1667 5.59071 17.2074 5.59071 17.2497V28.7497C5.59071 28.7921 5.60754 28.8327 5.63749 28.8627C5.66745 28.8926 5.70807 28.9094 5.75043 28.9094H14.3754C14.6596 28.9094 14.9356 29.0041 15.1599 29.1786L26.0352 37.6371V27.7435C26.0352 27.0378 26.6072 26.4657 27.3129 26.4657C28.0186 26.4657 28.5907 27.0378 28.5907 27.7435V40.2497C28.5907 40.7377 28.3127 41.1831 27.8743 41.3976C27.4359 41.612 26.9137 41.5579 26.5285 41.2583L13.937 31.465H5.75043C5.0303 31.465 4.33966 31.1789 3.83044 30.6697C3.32123 30.1605 3.03516 29.4698 3.03516 28.7497V17.2497C3.03516 16.5296 3.32123 15.8389 3.83044 15.3297C4.33966 14.8205 5.0303 14.5344 5.75043 14.5344H13.9363L14.8118 13.852C15.3684 13.4182 16.1713 13.5178 16.6051 14.0744Z" fill="#CDCDE0"/>
<path fill-rule="evenodd" clip-rule="evenodd" d="M27.8732 4.6024C28.3118 4.81673 28.59 5.26226 28.59 5.75044V19.1911C28.59 19.8968 28.0179 20.4688 27.3122 20.4688C26.6065 20.4688 26.0344 19.8968 26.0344 19.1911V8.36534L20.9458 12.3288C20.3891 12.7625 19.5862 12.6627 19.1526 12.1059C18.7189 11.5492 18.8187 10.7463 19.3755 10.3127L26.527 4.74237C26.9122 4.44239 27.4346 4.38807 27.8732 4.6024Z" fill="#CDCDE0"/>
</svg>
