<svg width="35" height="35" viewBox="0 0 35 35" fill="none" xmlns="http://www.w3.org/2000/svg">
<path d="M29.9277 10.541C30.843 11.4541 31.5691 12.5388 32.0645 13.7329C32.56 14.927 32.815 16.2072 32.815 17.5C32.815 18.7928 32.56 20.073 32.0645 21.2671C31.5691 22.4612 30.843 23.5459 29.9277 24.459" stroke="white" stroke-width="2" stroke-linecap="round" stroke-linejoin="round"/>
<path d="M10.9375 22.9688H4.375C4.08492 22.9688 3.80672 22.8535 3.6016 22.6484C3.39648 22.4433 3.28125 22.1651 3.28125 21.875V13.125C3.28125 12.8349 3.39648 12.5567 3.6016 12.3516C3.80672 12.1465 4.08492 12.0312 4.375 12.0312H10.9375L20.7812 4.375V30.625L10.9375 22.9688Z" stroke="white" stroke-width="2" stroke-linecap="round" stroke-linejoin="round"/>
<path d="M10.9375 12.0312V22.9688" stroke="white" stroke-width="2" stroke-linecap="round" stroke-linejoin="round"/>
<path d="M26.0586 14.4102C26.4654 14.8154 26.7881 15.2969 27.0083 15.8271C27.2286 16.3574 27.3419 16.9259 27.3419 17.5C27.3419 18.0741 27.2286 18.6426 27.0083 19.1729C26.7881 19.7031 26.4654 20.1846 26.0586 20.5898" stroke="white" stroke-width="2" stroke-linecap="round" stroke-linejoin="round"/>
</svg>
