<svg width="47" height="46" viewBox="0 0 47 46" fill="none" xmlns="http://www.w3.org/2000/svg">
<path fill-rule="evenodd" clip-rule="evenodd" d="M39.1653 12.855C39.7122 12.2844 40.6139 12.2693 41.1792 12.8214C42.5428 14.1528 43.6271 15.7369 44.3677 17.4841C45.1084 19.2314 45.4903 21.1061 45.4903 23.0006C45.4903 24.895 45.1084 26.7698 44.3677 28.5171C43.6271 30.2642 42.5428 31.8483 41.1792 33.1798C40.6139 33.7318 39.7122 33.7168 39.1653 33.1462C38.6184 32.5756 38.6333 31.6656 39.1986 31.1135C40.293 30.0449 41.1589 28.7778 41.7489 27.3861C42.3388 25.9946 42.6418 24.5044 42.6418 23.0006C42.6418 21.4968 42.3388 20.0066 41.7489 18.615C41.1589 17.2234 40.293 15.9563 39.1986 14.8876C38.6333 14.3356 38.6184 13.4256 39.1653 12.855Z" fill="#B1B1C0"/>
<path fill-rule="evenodd" clip-rule="evenodd" d="M28.5419 4.46341C29.0253 4.70656 29.3309 5.20483 29.3309 5.75001V40.25C29.3309 40.7952 29.0253 41.2935 28.5419 41.5366C28.0584 41.7798 27.4803 41.726 27.0491 41.3977L14.211 31.625H5.87541C5.12205 31.625 4.39104 31.3325 3.84537 30.7985C3.29821 30.2629 2.98242 29.527 2.98242 28.75V17.25C2.98242 16.473 3.29821 15.7371 3.84537 15.2016C4.39104 14.6675 5.12204 14.375 5.87541 14.375H14.211L27.0491 4.60233C27.4803 4.27405 28.0584 4.22025 28.5419 4.46341ZM26.4824 8.6347L15.5455 16.9602C15.2984 17.1483 14.9974 17.25 14.6879 17.25H5.87541C5.85304 17.25 5.8379 17.2579 5.83091 17.2633V28.7367C5.83789 28.7421 5.85304 28.75 5.87541 28.75H14.6879C14.9974 28.75 15.2984 28.8517 15.5455 29.0398L26.4824 37.3653V8.6347Z" fill="#B1B1C0"/>
<path fill-rule="evenodd" clip-rule="evenodd" d="M14.6879 14.375C15.4745 14.375 16.1122 15.0186 16.1122 15.8125V30.1875C16.1122 30.9814 15.4745 31.625 14.6879 31.625C13.9013 31.625 13.2637 30.9814 13.2637 30.1875V15.8125C13.2637 15.0186 13.9013 14.375 14.6879 14.375Z" fill="#B1B1C0"/>
<path fill-rule="evenodd" clip-rule="evenodd" d="M33.9682 17.9398C34.5147 17.3687 35.4164 17.353 35.9821 17.9046C36.6631 18.5686 37.206 19.36 37.5772 20.2348C37.9484 21.1097 38.1402 22.0493 38.1402 22.9994C38.1402 23.9495 37.9484 24.8892 37.5772 25.764C37.206 26.6388 36.6631 27.4303 35.9821 28.0943C35.4164 28.6458 34.5147 28.6301 33.9682 28.0591C33.4217 27.4881 33.4373 26.578 34.0031 26.0265C34.4145 25.6253 34.7385 25.1511 34.9588 24.6321C35.179 24.1132 35.2917 23.5585 35.2917 22.9994C35.2917 22.4403 35.179 21.8856 34.9588 21.3668C34.7385 20.8478 34.4145 20.3735 34.0031 19.9724C33.4373 19.4208 33.4217 18.5108 33.9682 17.9398Z" fill="#B1B1C0"/>
</svg>
