<svg width="46" height="46" viewBox="0 0 46 46" fill="none" xmlns="http://www.w3.org/2000/svg">
<path fill-rule="evenodd" clip-rule="evenodd" d="M38.3316 12.855C38.8668 12.2844 39.7493 12.2693 40.3026 12.8214C41.6372 14.1528 42.6984 15.7369 43.4233 17.4841C44.1482 19.2314 44.522 21.1061 44.522 23.0006C44.522 24.895 44.1482 26.7698 43.4233 28.5171C42.6984 30.2642 41.6372 31.8483 40.3026 33.1798C39.7493 33.7318 38.8668 33.7168 38.3316 33.1462C37.7963 32.5756 37.8109 31.6656 38.3642 31.1135C39.4353 30.0449 40.2828 28.7778 40.8602 27.3861C41.4375 25.9946 41.7341 24.5044 41.7341 23.0006C41.7341 21.4968 41.4375 20.0066 40.8602 18.615C40.2828 17.2234 39.4353 15.9563 38.3642 14.8876C37.8109 14.3356 37.7963 13.4256 38.3316 12.855Z" fill="#CDCDE0"/>
<path fill-rule="evenodd" clip-rule="evenodd" d="M27.9346 4.46341C28.4078 4.70656 28.7068 5.20483 28.7068 5.75001V40.25C28.7068 40.7952 28.4078 41.2935 27.9346 41.5366C27.4614 41.7798 26.8956 41.726 26.4735 41.3977L13.9087 31.625H5.75038C5.01305 31.625 4.2976 31.3325 3.76353 30.7985C3.22801 30.2629 2.91895 29.527 2.91895 28.75V17.25C2.91895 16.473 3.22802 15.7371 3.76353 15.2016C4.29759 14.6675 5.01304 14.375 5.75038 14.375H13.9087L26.4735 4.60233C26.8956 4.27405 27.4614 4.22025 27.9346 4.46341ZM25.9189 8.6347L15.2147 16.9602C14.9729 17.1483 14.6783 17.25 14.3754 17.25H5.75038C5.72849 17.25 5.71366 17.2579 5.70682 17.2633V28.7367C5.71366 28.7421 5.72848 28.75 5.75038 28.75H14.3754C14.6783 28.75 14.9729 28.8517 15.2147 29.0398L25.9189 37.3653V8.6347Z" fill="#CDCDE0"/>
<path fill-rule="evenodd" clip-rule="evenodd" d="M14.3754 14.375C15.1452 14.375 15.7693 15.0186 15.7693 15.8125V30.1875C15.7693 30.9814 15.1452 31.625 14.3754 31.625C13.6055 31.625 12.9814 30.9814 12.9814 30.1875V15.8125C12.9814 15.0186 13.6055 14.375 14.3754 14.375Z" fill="#CDCDE0"/>
<path fill-rule="evenodd" clip-rule="evenodd" d="M33.2459 17.9398C33.7807 17.3687 34.6632 17.353 35.2169 17.9046C35.8834 18.5686 36.4147 19.36 36.778 20.2348C37.1414 21.1097 37.329 22.0493 37.329 22.9994C37.329 23.9495 37.1414 24.8892 36.778 25.764C36.4147 26.6388 35.8834 27.4303 35.2169 28.0943C34.6632 28.6458 33.7807 28.6301 33.2459 28.0591C32.711 27.4881 32.7263 26.578 33.28 26.0265C33.6826 25.6253 33.9998 25.1511 34.2153 24.6321C34.4308 24.1132 34.5412 23.5585 34.5412 22.9994C34.5412 22.4403 34.4308 21.8856 34.2153 21.3668C33.9998 20.8478 33.6826 20.3735 33.28 19.9724C32.7263 19.4208 32.711 18.5108 33.2459 17.9398Z" fill="#CDCDE0"/>
</svg>
