<svg width="83" height="59" viewBox="0 0 83 59" fill="none" xmlns="http://www.w3.org/2000/svg">
<path fill-rule="evenodd" clip-rule="evenodd" d="M0 29.5003C0 27.8292 1.42582 26.4746 3.18465 26.4746H79.8153C81.5742 26.4746 83 27.8292 83 29.5003C83 31.1713 81.5742 32.5259 79.8153 32.5259H3.18465C1.42582 32.5259 0 31.1713 0 29.5003Z" fill="white"/>
<path fill-rule="evenodd" clip-rule="evenodd" d="M0 3.02564C0 1.35463 1.42582 0 3.18465 0H79.8153C81.5742 0 83 1.35463 83 3.02564C83 4.69666 81.5742 6.05128 79.8153 6.05128H3.18465C1.42582 6.05128 0 4.69666 0 3.02564Z" fill="white"/>
<path fill-rule="evenodd" clip-rule="evenodd" d="M0 55.9739C0 54.3029 1.42582 52.9482 3.18465 52.9482H79.8153C81.5742 52.9482 83 54.3029 83 55.9739C83 57.6449 81.5742 58.9995 79.8153 58.9995H3.18465C1.42582 58.9995 0 57.6449 0 55.9739Z" fill="white"/>
</svg>
